<svg width="16" height="16" viewBox="0 0 16 16" fill="none" xmlns="http://www.w3.org/2000/svg">
<path d="M9.13137 8.00001L11.3941 5.73727L10.2627 4.6059L8 6.86864L5.73726 4.6059L4.60589 5.73727L6.86863 8.00001L4.60589 10.2628L5.73726 11.3941L8 9.13138L10.2627 11.3941L11.3941 10.2628L9.13137 8.00001Z" fill="white"/>
<path fill-rule="evenodd" clip-rule="evenodd" d="M0 8C0 3.58172 3.58172 0 8 0C12.4183 0 16 3.58172 16 8C16 12.4183 12.4183 16 8 16C3.58172 16 0 12.4183 0 8ZM8 1.6C4.46538 1.6 1.6 4.46538 1.6 8C1.6 11.5346 4.46538 14.4 8 14.4C11.5346 14.4 14.4 11.5346 14.4 8C14.4 4.46538 11.5346 1.6 8 1.6Z" fill="white"/>
</svg>
