<svg width="260" height="51" viewBox="0 0 260 51" fill="none" xmlns="http://www.w3.org/2000/svg">
<path d="M76.6143 38H71.8331L80.5384 13.2727H86.0682L94.7855 38H90.0043L83.3999 18.3438H83.2067L76.6143 38ZM76.7713 28.3047H89.8111V31.9027H76.7713V28.3047ZM97.8493 38V19.4545H102.087V22.5455H102.28C102.618 21.4749 103.198 20.6499 104.019 20.0703C104.848 19.4827 105.794 19.1889 106.856 19.1889C107.098 19.1889 107.367 19.201 107.665 19.2251C107.971 19.2412 108.225 19.2694 108.426 19.3097V23.3303C108.241 23.2659 107.947 23.2095 107.545 23.1612C107.15 23.1049 106.768 23.0767 106.398 23.0767C105.601 23.0767 104.884 23.2498 104.248 23.5959C103.621 23.9339 103.126 24.4048 102.763 25.0085C102.401 25.6122 102.22 26.3085 102.22 27.0973V38H97.8493ZM121.586 19.4545V22.8352H110.925V19.4545H121.586ZM113.557 15.0114H117.928V32.4219C117.928 33.0095 118.017 33.4602 118.194 33.7741C118.379 34.08 118.62 34.2893 118.918 34.402C119.216 34.5147 119.546 34.571 119.908 34.571C120.182 34.571 120.431 34.5509 120.657 34.5107C120.89 34.4704 121.067 34.4342 121.188 34.402L121.925 37.8189C121.691 37.8994 121.357 37.9879 120.922 38.0845C120.496 38.1811 119.973 38.2375 119.353 38.2536C118.258 38.2857 117.272 38.1207 116.395 37.7585C115.517 37.3883 114.821 36.8168 114.306 36.044C113.799 35.2713 113.549 34.3054 113.557 33.1463V15.0114ZM125.242 38V19.4545H129.613V38H125.242ZM127.439 16.8224C126.747 16.8224 126.151 16.593 125.652 16.1342C125.153 15.6674 124.904 15.108 124.904 14.456C124.904 13.7959 125.153 13.2365 125.652 12.7777C126.151 12.3108 126.747 12.0774 127.439 12.0774C128.14 12.0774 128.735 12.3108 129.226 12.7777C129.725 13.2365 129.975 13.7959 129.975 14.456C129.975 15.108 129.725 15.6674 129.226 16.1342C128.735 16.593 128.14 16.8224 127.439 16.8224ZM142.197 38.3622C140.345 38.3622 138.756 37.9557 137.427 37.1428C136.107 36.3298 135.089 35.2069 134.373 33.7741C133.664 32.3333 133.31 30.6752 133.31 28.7997C133.31 26.9162 133.672 25.254 134.397 23.8132C135.121 22.3643 136.144 21.2375 137.464 20.4325C138.792 19.6196 140.361 19.2131 142.172 19.2131C143.678 19.2131 145.01 19.4908 146.169 20.0462C147.336 20.5935 148.266 21.3703 148.958 22.3764C149.65 23.3745 150.045 24.5417 150.141 25.8778H145.964C145.795 24.9844 145.392 24.2398 144.756 23.6442C144.128 23.0405 143.287 22.7386 142.233 22.7386C141.339 22.7386 140.555 22.9801 139.878 23.4631C139.202 23.938 138.675 24.6222 138.297 25.5156C137.926 26.4091 137.741 27.4796 137.741 28.7273C137.741 29.991 137.926 31.0777 138.297 31.9872C138.667 32.8887 139.186 33.585 139.854 34.076C140.53 34.5589 141.323 34.8004 142.233 34.8004C142.877 34.8004 143.452 34.6797 143.959 34.4382C144.474 34.1887 144.905 33.8305 145.251 33.3636C145.597 32.8968 145.835 32.3293 145.964 31.6612H150.141C150.037 32.9732 149.65 34.1364 148.982 35.1506C148.314 36.1567 147.404 36.9455 146.253 37.517C145.102 38.0805 143.75 38.3622 142.197 38.3622ZM158.101 13.2727V38H153.73V13.2727H158.101ZM170.806 38.3622C168.946 38.3622 167.34 37.9759 165.988 37.2031C164.644 36.4223 163.61 35.3196 162.885 33.8949C162.161 32.4621 161.798 30.7758 161.798 28.8359C161.798 26.9283 162.161 25.254 162.885 23.8132C163.618 22.3643 164.64 21.2375 165.952 20.4325C167.264 19.6196 168.805 19.2131 170.576 19.2131C171.719 19.2131 172.798 19.3982 173.812 19.7685C174.834 20.1307 175.736 20.6941 176.517 21.4588C177.305 22.2235 177.925 23.1974 178.376 24.3807C178.827 25.5559 179.052 26.9564 179.052 28.5824V29.9226H163.851V26.9766H174.862C174.854 26.1394 174.673 25.3949 174.319 24.7429C173.965 24.0829 173.47 23.5637 172.834 23.1854C172.206 22.8071 171.474 22.6179 170.637 22.6179C169.743 22.6179 168.958 22.8352 168.282 23.2699C167.606 23.6965 167.079 24.2599 166.7 24.9602C166.33 25.6525 166.141 26.4131 166.133 27.2422V29.8139C166.133 30.8925 166.33 31.8182 166.725 32.5909C167.119 33.3556 167.67 33.9432 168.379 34.3537C169.087 34.7562 169.916 34.9574 170.866 34.9574C171.502 34.9574 172.077 34.8688 172.593 34.6918C173.108 34.5066 173.554 34.237 173.933 33.8828C174.311 33.5286 174.597 33.09 174.79 32.5668L178.871 33.0256C178.613 34.1042 178.122 35.0459 177.398 35.8509C176.682 36.6477 175.764 37.2675 174.645 37.7102C173.526 38.1449 172.246 38.3622 170.806 38.3622ZM187.12 27.1335V38H182.75V13.2727H187.024V22.6058H187.241C187.676 21.5594 188.348 20.7344 189.257 20.1307C190.175 19.5189 191.342 19.2131 192.759 19.2131C194.047 19.2131 195.17 19.4827 196.127 20.022C197.085 20.5613 197.826 21.3501 198.349 22.3885C198.88 23.4268 199.146 24.6946 199.146 26.1918V38H194.775V26.8679C194.775 25.6203 194.453 24.6503 193.809 23.9581C193.173 23.2578 192.28 22.9077 191.129 22.9077C190.356 22.9077 189.664 23.0767 189.052 23.4148C188.449 23.7448 187.974 24.2237 187.627 24.8516C187.289 25.4794 187.12 26.2401 187.12 27.1335ZM211.691 38.3622C209.88 38.3622 208.31 37.9638 206.982 37.1669C205.654 36.37 204.623 35.2552 203.891 33.8224C203.167 32.3897 202.804 30.7154 202.804 28.7997C202.804 26.884 203.167 25.2057 203.891 23.7649C204.623 22.3241 205.654 21.2053 206.982 20.4084C208.31 19.6115 209.88 19.2131 211.691 19.2131C213.502 19.2131 215.071 19.6115 216.4 20.4084C217.728 21.2053 218.754 22.3241 219.478 23.7649C220.211 25.2057 220.577 26.884 220.577 28.7997C220.577 30.7154 220.211 32.3897 219.478 33.8224C218.754 35.2552 217.728 36.37 216.4 37.1669C215.071 37.9638 213.502 38.3622 211.691 38.3622ZM211.715 34.8608C212.697 34.8608 213.518 34.5911 214.178 34.0518C214.838 33.5045 215.329 32.772 215.651 31.8544C215.981 30.9368 216.146 29.9145 216.146 28.7876C216.146 27.6527 215.981 26.6264 215.651 25.7088C215.329 24.7831 214.838 24.0466 214.178 23.4993C213.518 22.9519 212.697 22.6783 211.715 22.6783C210.709 22.6783 209.872 22.9519 209.203 23.4993C208.543 24.0466 208.048 24.7831 207.718 25.7088C207.396 26.6264 207.235 27.6527 207.235 28.7876C207.235 29.9145 207.396 30.9368 207.718 31.8544C208.048 32.772 208.543 33.5045 209.203 34.0518C209.872 34.5911 210.709 34.8608 211.715 34.8608ZM228.657 13.2727V38H224.287V13.2727H228.657ZM233.152 38V19.4545H237.523V38H233.152ZM235.349 16.8224C234.657 16.8224 234.062 16.593 233.562 16.1342C233.063 15.6674 232.814 15.108 232.814 14.456C232.814 13.7959 233.063 13.2365 233.562 12.7777C234.062 12.3108 234.657 12.0774 235.349 12.0774C236.05 12.0774 236.645 12.3108 237.136 12.7777C237.635 13.2365 237.885 13.7959 237.885 14.456C237.885 15.108 237.635 15.6674 237.136 16.1342C236.645 16.593 236.05 16.8224 235.349 16.8224ZM246.002 32.1804L245.99 26.9041H246.69L253.355 19.4545H258.462L250.264 28.5824H249.358L246.002 32.1804ZM242.017 38V13.2727H246.388V38H242.017ZM253.656 38L247.619 29.5604L250.566 26.4815L258.884 38H253.656Z" fill="white"/>
<path d="M25.5 15.3C29.3763 15.3 32.7516 17.4614 34.4796 20.6567L38.9656 18.2308C36.3824 13.454 31.3231 10.2 25.5 10.2C19.6769 10.2 14.6176 13.454 12.0344 18.2308L16.5204 20.6567C18.2484 17.4614 21.6237 15.3 25.5 15.3Z" fill="#ADFF00"/>
<path d="M35.7 31.2375C35.7 32.9979 34.2729 34.425 32.5125 34.425C30.7521 34.425 29.325 32.9979 29.325 31.2375C29.325 29.4771 30.7521 28.05 32.5125 28.05C34.2729 28.05 35.7 29.4771 35.7 31.2375Z" fill="#ADFF00"/>
<path d="M18.4875 34.425C20.2479 34.425 21.675 32.9979 21.675 31.2375C21.675 29.4771 20.2479 28.05 18.4875 28.05C16.7271 28.05 15.3 29.4771 15.3 31.2375C15.3 32.9979 16.7271 34.425 18.4875 34.425Z" fill="#ADFF00"/>
<path fill-rule="evenodd" clip-rule="evenodd" d="M25.5 51C39.5833 51 51 39.5833 51 25.5C51 11.4167 39.5833 0 25.5 0C11.4167 0 0 11.4167 0 25.5C0 39.5833 11.4167 51 25.5 51ZM45.9 25.5C45.9 36.7666 36.7666 45.9 25.5 45.9C14.2334 45.9 5.1 36.7666 5.1 25.5C5.1 14.2334 14.2334 5.1 25.5 5.1C36.7666 5.1 45.9 14.2334 45.9 25.5Z" fill="#ADFF00"/>
</svg>
