<svg width="14" height="11" viewBox="0 0 14 11" fill="none" xmlns="http://www.w3.org/2000/svg">
<path fill-rule="evenodd" clip-rule="evenodd" d="M7 3.09375C5.65229 3.09375 4.55976 4.17106 4.55976 5.5C4.55976 6.82894 5.65229 7.90625 7 7.90625C8.3477 7.90625 9.44023 6.82894 9.44023 5.5C9.44023 4.17106 8.3477 3.09375 7 3.09375ZM5.95418 5.5C5.95418 4.93046 6.42241 4.46875 7 4.46875C7.57759 4.46875 8.04581 4.93046 8.04581 5.5C8.04581 6.06954 7.57759 6.53125 7 6.53125C6.42241 6.53125 5.95418 6.06954 5.95418 5.5Z" fill="#768787"/>
<path fill-rule="evenodd" clip-rule="evenodd" d="M7 0C4.28941 0 2.53571 1.34928 1.48415 2.669C0.961733 3.32463 0.607735 3.97702 0.384011 4.46468C0.271761 4.70936 0.191225 4.91493 0.137966 5.06198C0.111312 5.13557 0.0914166 5.19471 0.0777378 5.23699C0.0708964 5.25813 0.0656034 5.27508 0.0617919 5.28753C0.059886 5.29376 0.0583498 5.29886 0.0571749 5.30281C0.0565875 5.30478 0.0560904 5.30646 0.0556825 5.30785L0.0551374 5.30971L0.0549147 5.31048C0.0548172 5.31081 0.0547253 5.31113 0.725109 5.5L0.0547253 5.31113L0 5.5L0.0547253 5.68887L0.725109 5.5C0.0547253 5.68887 0.0548172 5.68919 0.0549147 5.68952L0.0551373 5.69029L0.0556824 5.69215L0.0562173 5.69396L0.0571749 5.69719C0.0583498 5.70114 0.059886 5.70624 0.0617919 5.71247C0.0656034 5.72492 0.0708964 5.74187 0.0777378 5.76301C0.0914166 5.80529 0.111312 5.86443 0.137966 5.93802C0.191225 6.08506 0.271761 6.29064 0.384011 6.53532C0.607735 7.02298 0.961732 7.67537 1.48415 8.331C2.53571 9.65072 4.28941 11 7 11C9.71059 11 11.4643 9.65072 12.5159 8.331C13.0383 7.67537 13.3923 7.02298 13.616 6.53532C13.7282 6.29064 13.8088 6.08506 13.862 5.93802C13.8887 5.86443 13.9086 5.80529 13.9223 5.76301C13.9291 5.74187 13.9344 5.72492 13.9382 5.71247C13.9391 5.70962 13.9399 5.707 13.9406 5.70462C13.9414 5.70181 13.9422 5.69933 13.9428 5.69719L13.9436 5.69475L13.9443 5.69215L13.9449 5.69029L13.9451 5.68952C13.9452 5.68919 13.9453 5.68887 13.2749 5.5L13.9453 5.68887L14 5.5L13.9453 5.31113L13.2749 5.5C13.9453 5.31113 13.9452 5.31081 13.9451 5.31048L13.9449 5.30971L13.9443 5.30785C13.9439 5.30646 13.9434 5.30478 13.9428 5.30281C13.9417 5.29886 13.9401 5.29376 13.9382 5.28753C13.9344 5.27508 13.9291 5.25813 13.9223 5.23699C13.9086 5.19471 13.8887 5.13557 13.862 5.06198C13.8088 4.91493 13.7282 4.70936 13.616 4.46468C13.3923 3.97702 13.0383 3.32463 12.5159 2.669C11.4643 1.34928 9.71059 0 7 0ZM1.65448 5.96859C1.56619 5.77614 1.50239 5.61504 1.46007 5.5C1.50239 5.38496 1.56619 5.22386 1.65448 5.03141C1.84472 4.61673 2.14436 4.06599 2.58061 3.5185C3.44637 2.43197 4.83012 1.375 7 1.375C9.16988 1.375 10.5536 2.43197 11.4194 3.5185C11.8556 4.06599 12.1553 4.61673 12.3455 5.03141C12.4338 5.22386 12.4976 5.38496 12.5399 5.5C12.4976 5.61504 12.4338 5.77614 12.3455 5.96859C12.1553 6.38327 11.8556 6.93401 11.4194 7.4815C10.5536 8.56803 9.16988 9.625 7 9.625C4.83012 9.625 3.44637 8.56803 2.58061 7.4815C2.14436 6.93401 1.84472 6.38327 1.65448 5.96859Z" fill="#768787"/>
</svg>
